# xmcd
#
# Track frame offsets: 
#        183
#        12360
#        34443
#        50243
#        62908
#        82015
#        100458
#        117608
#        132333
#        151720
#        164183
#
# Disc length: 2200 seconds
#
# Revision: 2
# Processed by: cddbd v1.5.2PL0 Copyright (c) Steve Scherf et al.
# Submitted via: ExactAudioCopy v0.99pb5
#
DISCID=a408960b
DTITLE=Johnny Otis - The New Johnny Otis Show (with Shuggie Otis)
DYEAR=1981
DGENRE=Blues
TTITLE0=Drinkin'Wine Spo-dee-o-dee
TTITLE1=Every beat of my heart
TTITLE2=Jonella and Jack
TTITLE3=What Else can I do
TTITLE4=Half Steppin Woman
TTITLE5=Why don't you do right
TTITLE6=Big time scoop
TTITLE7=I never felt this way before
TTITLE8=Don't deceive me
TTITLE9=So fine
TTITLE10=Unknown
EXTD=1981\n\n\nsubmitted by Stamppot
EXTT0=
EXTT1=
EXTT2=
EXTT3=
EXTT4=
EXTT5=
EXTT6=
EXTT7=
EXTT8=
EXTT9=
EXTT10=
PLAYORDER=
